<?xml version="1.0" standalone="no"?>
<!DOCTYPE svg PUBLIC "-//W3C//DTD SVG 20010904//EN"
 "http://www.w3.org/TR/2001/REC-SVG-20010904/DTD/svg10.dtd">
<svg version="1.0" xmlns="http://www.w3.org/2000/svg"
 width="780.000000pt" height="780.000000pt" viewBox="0 0 780.000000 780.000000"
 preserveAspectRatio="xMidYMid meet">
<metadata>
Created by potrace 1.11, written by Peter Selinger 2001-2013
</metadata>
<g transform="translate(0.000000,780.000000) scale(0.100000,-0.100000)"
fill="#000000" stroke="none">
<path d="M2097 7152 l-1778 -647 5 -40 c4 -22 24 -202 46 -400 23 -198 67
-598 100 -890 33 -291 80 -712 105 -935 25 -223 88 -785 140 -1250 130 -1155
143 -1272 148 -1276 2 -2 136 -79 298 -170 162 -92 839 -475 1504 -852 666
-377 1215 -685 1220 -685 10 0 3003 1689 3019 1704 5 4 15 61 22 126 16 129
64 553 119 1026 19 166 45 399 59 517 51 439 56 489 75 655 35 305 51 437 71
615 11 96 29 254 40 350 11 96 27 236 35 310 73 619 137 1192 133 1195 -1 2
-136 51 -298 110 -790 286 -1700 616 -1920 695 -135 49 -452 163 -705 255
-624 226 -649 235 -655 234 -3 0 -805 -292 -1783 -647z m2099 -1517 c456 -223
1021 -498 1256 -613 235 -114 426 -211 425 -216 -2 -5 -192 -126 -424 -270
-232 -143 -420 -263 -418 -267 2 -3 193 -97 424 -210 315 -153 417 -207 408
-215 -7 -6 -154 -98 -327 -205 -173 -106 -358 -220 -412 -254 -405 -253 -692
-428 -702 -428 -10 0 -1191 579 -1941 950 -165 82 -360 178 -432 213 -73 35
-133 66 -133 69 0 3 187 122 415 264 228 142 415 261 415 265 0 4 -190 101
-422 215 -341 168 -420 210 -405 218 9 6 333 208 719 450 386 241 707 439 713
439 6 0 385 -182 841 -405z"/>
</g>
</svg>
