<?xml version="1.0" encoding="UTF-8" standalone="no"?>
<!DOCTYPE svg PUBLIC "-//W3C//DTD SVG 1.1//EN"
 "http://www.w3.org/Graphics/SVG/1.1/DTD/svg11.dtd">
<!-- Generated by graphviz version 2.40.1 (20161225.0304)
 -->
<!-- Title: dependencies Pages: 1 -->
<svg width="757pt" height="284pt"
 viewBox="0.00 0.00 757.00 284.00" xmlns="http://www.w3.org/2000/svg" xmlns:xlink="http://www.w3.org/1999/xlink">
<g id="graph0" class="graph" transform="scale(1 1) rotate(0) translate(4 280)">
<title>dependencies</title>
<polygon fill="#ffffff" stroke="transparent" points="-4,4 -4,-280 753,-280 753,4 -4,4"/>
<text text-anchor="start" x="353.5091" y="-42.4" font-family="sans-serif" font-weight="bold" font-size="14.00" fill="#000000">Legend</text>
<polygon fill="#ffffb3" stroke="transparent" points="140.5,-10 140.5,-30 160.5,-30 160.5,-10 140.5,-10"/>
<text text-anchor="start" x="164.129" y="-15.4" font-family="sans-serif" font-size="14.00" fill="#000000"> &#160;Declarations</text>
<polygon fill="#8dd3c7" stroke="transparent" points="253.5,-10 253.5,-30 273.5,-30 273.5,-10 253.5,-10"/>
<text text-anchor="start" x="277.2251" y="-15.4" font-family="sans-serif" font-size="14.00" fill="#000000"> &#160;Module</text>
<polygon fill="#80b1d3" stroke="transparent" points="339.5,-10 339.5,-30 359.5,-30 359.5,-10 339.5,-10"/>
<text text-anchor="start" x="363.2812" y="-15.4" font-family="sans-serif" font-size="14.00" fill="#000000"> &#160;Bootstrap</text>
<polygon fill="#fdb462" stroke="transparent" points="436.5,-10 436.5,-30 456.5,-30 456.5,-10 436.5,-10"/>
<text text-anchor="start" x="460.1732" y="-15.4" font-family="sans-serif" font-size="14.00" fill="#000000"> &#160;Providers</text>
<polygon fill="#fb8072" stroke="transparent" points="532.5,-10 532.5,-30 552.5,-30 552.5,-10 532.5,-10"/>
<text text-anchor="start" x="556.2258" y="-15.4" font-family="sans-serif" font-size="14.00" fill="#000000"> &#160;Exports</text>
<g id="clust1" class="cluster">
<title>cluster_MatPasswordStrengthModule</title>
<polygon fill="none" stroke="#000000" stroke-dasharray="1,5" points="8,-70 8,-268 741,-268 741,-70 8,-70"/>
</g>
<g id="clust2" class="cluster">
<title>cluster_MatPasswordStrengthModule_declarations</title>
<polygon fill="none" stroke="#000000" points="21,-78 21,-130 728,-130 728,-78 21,-78"/>
</g>
<g id="clust7" class="cluster">
<title>cluster_MatPasswordStrengthModule_exports</title>
<polygon fill="none" stroke="#000000" points="16,-208 16,-260 733,-260 733,-208 16,-208"/>
</g>
<!-- MatPassToggleVisibilityComponent -->
<g id="node1" class="node">
<title>MatPassToggleVisibilityComponent</title>
<polygon fill="#ffffb3" stroke="#000000" points="719.8214,-122 498.1786,-122 498.1786,-86 719.8214,-86 719.8214,-122"/>
<text text-anchor="middle" x="609" y="-99.8" font-family="Times,serif" font-size="14.00" fill="#000000">MatPassToggleVisibilityComponent</text>
</g>
<!-- MatPasswordStrengthModule -->
<g id="node4" class="node">
<title>MatPasswordStrengthModule</title>
<polygon fill="#8dd3c7" stroke="#000000" points="469.6923,-187 466.6923,-191 445.6923,-191 442.6923,-187 286.3077,-187 286.3077,-151 469.6923,-151 469.6923,-187"/>
<text text-anchor="middle" x="378" y="-164.8" font-family="Times,serif" font-size="14.00" fill="#000000">MatPasswordStrengthModule</text>
</g>
<!-- MatPassToggleVisibilityComponent&#45;&gt;MatPasswordStrengthModule -->
<g id="edge1" class="edge">
<title>MatPassToggleVisibilityComponent&#45;&gt;MatPasswordStrengthModule</title>
<path fill="none" stroke="#000000" d="M646.6369,-122.0225C646.6369,-139.3734 646.6369,-163 646.6369,-163 646.6369,-163 479.6982,-163 479.6982,-163"/>
<polygon fill="#000000" stroke="#000000" points="479.6983,-159.5001 469.6982,-163 479.6982,-166.5001 479.6983,-159.5001"/>
</g>
<!-- MatPasswordStrengthComponent -->
<g id="node2" class="node">
<title>MatPasswordStrengthComponent</title>
<polygon fill="#ffffb3" stroke="#000000" points="480.4748,-122 275.5252,-122 275.5252,-86 480.4748,-86 480.4748,-122"/>
<text text-anchor="middle" x="378" y="-99.8" font-family="Times,serif" font-size="14.00" fill="#000000">MatPasswordStrengthComponent</text>
</g>
<!-- MatPasswordStrengthComponent&#45;&gt;MatPasswordStrengthModule -->
<g id="edge2" class="edge">
<title>MatPasswordStrengthComponent&#45;&gt;MatPasswordStrengthModule</title>
<path fill="none" stroke="#000000" d="M378,-122.1061C378,-122.1061 378,-140.991 378,-140.991"/>
<polygon fill="#000000" stroke="#000000" points="374.5001,-140.9909 378,-150.991 381.5001,-140.991 374.5001,-140.9909"/>
</g>
<!-- MatPasswordStrengthInfoComponent -->
<g id="node3" class="node">
<title>MatPasswordStrengthInfoComponent</title>
<polygon fill="#ffffb3" stroke="#000000" points="257.2962,-122 28.7038,-122 28.7038,-86 257.2962,-86 257.2962,-122"/>
<text text-anchor="middle" x="143" y="-99.8" font-family="Times,serif" font-size="14.00" fill="#000000">MatPasswordStrengthInfoComponent</text>
</g>
<!-- MatPasswordStrengthInfoComponent&#45;&gt;MatPasswordStrengthModule -->
<g id="edge3" class="edge">
<title>MatPasswordStrengthInfoComponent&#45;&gt;MatPasswordStrengthModule</title>
<path fill="none" stroke="#000000" d="M180.216,-122.0225C180.216,-139.3734 180.216,-163 180.216,-163 180.216,-163 276.3453,-163 276.3453,-163"/>
<polygon fill="#000000" stroke="#000000" points="276.3453,-166.5001 286.3453,-163 276.3453,-159.5001 276.3453,-166.5001"/>
</g>
<!-- MatPassToggleVisibilityComponent  -->
<g id="node5" class="node">
<title>MatPassToggleVisibilityComponent </title>
<polygon fill="#fb8072" stroke="#000000" points="725.3213,-252 500.6787,-252 500.6787,-216 725.3213,-216 725.3213,-252"/>
<text text-anchor="middle" x="613" y="-229.8" font-family="Times,serif" font-size="14.00" fill="#000000">MatPassToggleVisibilityComponent </text>
</g>
<!-- MatPasswordStrengthModule&#45;&gt;MatPassToggleVisibilityComponent  -->
<g id="edge4" class="edge">
<title>MatPasswordStrengthModule&#45;&gt;MatPassToggleVisibilityComponent </title>
<path fill="none" stroke="#000000" stroke-dasharray="5,2" d="M469.7925,-175C520.616,-175 573.6131,-175 573.6131,-175 573.6131,-175 573.6131,-205.9775 573.6131,-205.9775"/>
<polygon fill="#000000" stroke="#000000" points="570.1132,-205.9774 573.6131,-215.9775 577.1132,-205.9775 570.1132,-205.9774"/>
</g>
<!-- MatPasswordStrengthComponent  -->
<g id="node6" class="node">
<title>MatPasswordStrengthComponent </title>
<polygon fill="#fb8072" stroke="#000000" points="482.4753,-252 273.5247,-252 273.5247,-216 482.4753,-216 482.4753,-252"/>
<text text-anchor="middle" x="378" y="-229.8" font-family="Times,serif" font-size="14.00" fill="#000000">MatPasswordStrengthComponent </text>
</g>
<!-- MatPasswordStrengthModule&#45;&gt;MatPasswordStrengthComponent  -->
<g id="edge5" class="edge">
<title>MatPasswordStrengthModule&#45;&gt;MatPasswordStrengthComponent </title>
<path fill="none" stroke="#000000" stroke-dasharray="5,2" d="M378,-187.1061C378,-187.1061 378,-205.991 378,-205.991"/>
<polygon fill="#000000" stroke="#000000" points="374.5001,-205.9909 378,-215.991 381.5001,-205.991 374.5001,-205.9909"/>
</g>
<!-- MatPasswordStrengthInfoComponent  -->
<g id="node7" class="node">
<title>MatPasswordStrengthInfoComponent </title>
<polygon fill="#fb8072" stroke="#000000" points="255.7961,-252 24.2039,-252 24.2039,-216 255.7961,-216 255.7961,-252"/>
<text text-anchor="middle" x="140" y="-229.8" font-family="Times,serif" font-size="14.00" fill="#000000">MatPasswordStrengthInfoComponent </text>
</g>
<!-- MatPasswordStrengthModule&#45;&gt;MatPasswordStrengthInfoComponent  -->
<g id="edge6" class="edge">
<title>MatPasswordStrengthModule&#45;&gt;MatPasswordStrengthInfoComponent </title>
<path fill="none" stroke="#000000" stroke-dasharray="5,2" d="M286.179,-175C206.7343,-175 104.534,-175 104.534,-175 104.534,-175 104.534,-205.9775 104.534,-205.9775"/>
<polygon fill="#000000" stroke="#000000" points="101.0339,-205.9775 104.534,-215.9775 108.0339,-205.9774 101.0339,-205.9775"/>
</g>
</g>
</svg>
